<?xml version="1.0" encoding="UTF-8"?><svg id="Layer_31" xmlns="http://www.w3.org/2000/svg" xmlns:xlink="http://www.w3.org/1999/xlink" viewBox="0 0 32 32"><defs><style>.cls-1{fill:url(#linear-gradient-2);}.cls-2{fill:url(#radial-gradient);}.cls-3{fill:url(#linear-gradient-5);}.cls-4{fill:url(#radial-gradient-2);}.cls-5{fill:url(#linear-gradient-3);}.cls-6{fill:url(#linear-gradient);}.cls-7{fill:url(#linear-gradient-4);}</style><radialGradient id="radial-gradient" cx="16" cy="16" fx="16" fy="16" r="15.72" gradientTransform="matrix(1, 0, 0, 1, 0, 0)" gradientUnits="userSpaceOnUse"><stop offset="0" stop-color="#f78d2a"/><stop offset="1" stop-color="#f68b28"/></radialGradient><radialGradient id="radial-gradient-2" cx="16" cy="15.94" fx="16" fy="15.94" r="10.82" gradientTransform="matrix(1, 0, 0, 1, 0, 0)" gradientUnits="userSpaceOnUse"><stop offset="0" stop-color="#f1f2f2"/><stop offset="1" stop-color="#d1d3d4"/></radialGradient><linearGradient id="linear-gradient" x1="9.27" y1="18.98" x2="9.73" y2="7.85" gradientTransform="matrix(1, 0, 0, 1, 0, 0)" gradientUnits="userSpaceOnUse"><stop offset="0" stop-color="#a7a9ac"/><stop offset=".11" stop-color="#aeb0b3"/><stop offset=".35" stop-color="#bcbec0"/><stop offset=".55" stop-color="#cacccd"/><stop offset="1" stop-color="#e6e7e8"/></linearGradient><linearGradient id="linear-gradient-2" x1="22.54" y1="19.21" x2="23.02" y2="7.74" xlink:href="#linear-gradient"/><linearGradient id="linear-gradient-3" x1="9.42" y1="8.73" x2="12.81" y2="3.6" gradientTransform="matrix(1, 0, 0, 1, 0, 0)" gradientUnits="userSpaceOnUse"><stop offset="0" stop-color="#e6e7e8"/><stop offset=".35" stop-color="#bcbec0"/><stop offset=".55" stop-color="#cacccd"/><stop offset="1" stop-color="#e6e7e8"/></linearGradient><linearGradient id="linear-gradient-4" x1="3042.83" y1="8.71" x2="3046.22" y2="3.58" gradientTransform="translate(3065.42) rotate(-180) scale(1 -1)" xlink:href="#linear-gradient-3"/><linearGradient id="linear-gradient-5" x1="16.4" y1="14.14" x2="19.31" y2="14.14" xlink:href="#linear-gradient"/></defs><circle class="cls-2" cx="16" cy="16" r="15.72"/><g id="Phoenix_-_Gradient"><path class="cls-4" d="M20.65,16.38c6.63-3.16,3.61-8.58,3.47-8.82h0c-.16,.64-.48,1.4-1.08,2.24,.67-1.52,.32-2.78-.11-3.6-1.4-1.33-3.18-2.26-5.17-2.61l.16,.13h0c2.67,.82,4.62,3.29,4.65,6.22h0v.06c0,2.41-1.29,4.51-3.22,5.66-.3,.19-.65,.31-1.04,.31-1.06,0-1.91-.86-1.91-1.91s.86-1.91,1.91-1.91c.15,0,.3,.02,.44,.05,.02,0,.04,0,.07,0-.19-1.35-1.43-.72-2.18-.37-2.05-1.72-2.8,1.8-5.22,1.71,.35,.4,1.58,.38,2.44-.04-.57,.79-.37,1.97-.02,2.7-2.56-.9-4.4-3.34-4.4-6.21,0-.03,0-.06,0-.08l-.02,.02,.02-.02c.04-2.95,2.02-5.43,4.72-6.22h0l.22-.13c-2.04,.33-3.88,1.27-5.31,2.63-.43,.81-.77,2.07-.1,3.59-.61-.84-.93-1.6-1.08-2.25h0c-.1,.18-3.2,5.65,3.47,8.83,0,0-3.46-.14-4.36-.93,.27,.95,2.63,3.94,5.77,3.97,1.12-.02,1.49,.54,1.61,1.14l-.21,.35c-.57,.95-.7,1.99-.53,3.06,.16,1.02,.62,1.91,1.25,2.72,.03,.04,.07,.08,.09,.1,0-.28-.03-.56,0-.83,.01-.16,.09-.32,.18-.45,.15-.2,.23-.18,.31,.05,.08,.22,.17,.44,.26,.65h0c.05,.2,.09,.39,.14,.59,.11,.49,.18,.99,.16,1.52,.05-.04,.09-.07,.12-.11,.24-.26,.49-.5,.71-.78,1.06-1.35,1.61-2.88,1.59-4.61-.01-.67-.11-1.32-.35-1.94h0v-.02c-.08-.18-.16-.36-.25-.53-.09-.17-.19-.34-.28-.52-.28-.65,.06-.49,1.68-.38,3.14-.02,5.51-3.02,5.77-3.97-.9,.78-4.36,.93-4.36,.93Zm1.94-6.46v0Zm.01-.06v0Zm-6.75,2.53c-.12,.04-.35-.05-.37-.11-.02-.06-.04-.05,.08-.09,.12-.04,.46-.05,.48,.01s-.07,.14-.19,.18Z"/><g id="Highlights"><path class="cls-6" d="M6.99,15.45c.9,.78,4.36,.93,4.36,.93-6.67-3.18-3.57-8.64-3.47-8.82h0l-.4,.65c-.78,1.43-2.08,4.91,1.78,7.57-1.31-.19-2.43-.8-3.3-1.45h0v.02h0v.02h0v.03h0v.02h0v.02h0v.02h0v.02h0v.02h0v.03h.01v.02h.01v.03h.01v.03h.01l.03,.06h0v.03h.02l.02,.03h0l.02,.04h0l.02,.04h0l.02,.04h0l.02,.04h0l.02,.04h0l.04,.08h0s.05,.09,.07,.14h0l.05,.1h0l.03,.05h0l.03,.05h0l.03,.05h0l.03,.05h0l.03,.05h0l.03,.05h0l.03,.06h0l.03,.06h0l.03,.06h0l.03,.06h0s.05,.08,.07,.12h0l.04,.06h0l.04,.06h0l.04,.06h0l.04,.06h0l.04,.06h0s.05,.08,.08,.12h0l.04,.06h0l.04,.06h0l.04,.06h0l.04,.06h0l.05,.06h0l.05,.06h0l.05,.06h0l.05,.06h0l.05,.06h0l.05,.06h0l.05,.06h0l.05,.06h0l.05,.06h0l.05,.06h0l.05,.06h0l.05,.06h0l.05,.06h0l.05,.06h0l.05,.06h0l.05,.06h0l.05,.06h0l.05,.06h0l.06,.06h0l.06,.06h0l.06,.06h0l.06,.06h0l.06,.06h0l.06,.06h0l.06,.06h0l.06,.06h0l.06,.06h0l.06,.05h.01l.06,.05h.01l.06,.05h.01l.06,.05h.01l.06,.05h.01l.06,.05h.01l.06,.05h.01l.06,.05h.01l.06,.05h.02l.06,.05h.02l.06,.05h.02l.06,.04h.02l.06,.04h.02l.06,.04h.02l.06,.04h.02l.06,.04h.02l.06,.04h.02l.06,.04h.02l.06,.04h.02l.06,.03h.02l.06,.03h.02l.06,.03h.02l.06,.03h.03l.06,.03h.03l.06,.03h.03l.06,.03h.03l.06,.02h.03l.06,.02h.03l.06,.02h.03l.06,.02h.03l.06,.02h.03l.06,.02h.09l.04,.02h.1l.06,.02h.14l.06,.02h.24s.04,0,.06,0c.01,0,.03,0,.04,0h.32l.06-.02h.05s.07-.01,.11-.01c-3.14-.02-5.51-3.02-5.77-3.97Z"/><path class="cls-1" d="M26.04,14.33h0c-.87,.65-2,1.26-3.3,1.45,3.86-2.67,2.56-6.15,1.78-7.57l-.4-.64h0c.14,.24,3.16,5.66-3.47,8.82,0,0,3.46-.14,4.36-.93-.27,.95-2.63,3.94-5.77,3.97,.04,0,.07,0,.11,.01h.21l.04,.02h.17s.03,0,.05,0c.02,0,.04,0,.06,0h.3l.05-.02h.15l.05-.02h.1l.05-.02h.05l.05-.02h.05l.05-.02h.05l.05-.02h.05l.05-.02h.05l.05-.02h.05l.05-.02h.05l.05-.03h.04l.05-.03h.04l.04-.03h.04l.04-.03,.04-.02,.04-.02,.04-.02,.04-.02,.04-.02,.04-.02,.04-.02,.04-.02,.04-.02,.04-.02,.04-.02,.04-.02,.04-.02,.04-.02,.04-.02,.04-.02,.04-.02,.04-.02,.04-.02,.04-.02,.04-.02,.04-.02,.04-.02,.04-.02,.04-.02,.04-.02,.04-.02,.04-.02,.04-.02,.04-.02,.04-.02,.04-.02,.04-.03,.04-.02,.04-.03,.04-.03,.04-.03,.04-.03,.04-.03,.03-.03,.04-.03,.03-.03,.03-.03,.03-.03,.03-.03,.03-.03,.03-.03,.03-.03,.03-.03,.03-.03,.03-.03,.03-.03,.03-.03,.03-.03,.03-.03,.03-.03,.03-.03,.03-.03,.03-.03,.03-.03,.03-.03,.03-.03,.03-.03,.03-.03,.03-.03,.03-.03,.03-.03,.03-.03,.03-.03,.03-.03,.03-.03,.03-.03,.03-.03,.03-.03,.03-.03,.03-.03,.03-.03,.03-.03,.03-.03,.03-.03,.03-.03,.03-.03,.03-.03,.03-.03,.03-.03,.02-.03,.03-.03,.02-.03,.03-.03,.02-.03,.03-.03,.02-.03,.03-.03,.02-.03,.02-.03,.02-.03,.02-.03,.02-.03,.02-.03,.02-.03,.02-.03,.02-.03,.02-.03,.02-.03,.02-.03,.02-.03,.02-.03,.02-.03,.02-.03,.02-.03,.02-.03,.02-.03,.02-.03,.02-.03,.02-.03,.02-.03,.02-.03,.02-.03,.02-.03,.02-.03,.02-.03,.02-.03,.02-.03,.02-.03,.02-.03,.02-.03,.02-.03,.02-.03,.02-.03,.02-.03,.02-.03v-.03l.03-.03v-.02l.03-.03v-.02l.03-.03v-.02l.03-.03v-.02l.03-.03v-.02l.03-.03v-.02l.03-.03v-.02l.03-.03v-.02l.03-.03v-.02l.02-.03v-.02l.02-.03v-.02l.02-.02v-.02l.02-.02v-.02l.02-.02v-.02l.02-.02v-.02l.02-.02v-.02l.02-.02v-.02l.02-.02v-.02l.02-.02v-.02l.02-.02h0v-.03h.01v-.03h.01v-.03h.01v-.03h.01v-.03h.01v-.03h.01v-.02h.01v-.02h.01v-.02h0v-.02h0v-.02h0v-.02h.01v-.04h.01v-.02h0Z"/><path class="cls-5" d="M14.15,3.71h0c-.4,.1-3.12,.84-4.62,2.71-.79,1.32-.13,3.54-.13,3.54l.02-.03c.04-2.95,2.02-5.43,4.72-6.22Z"/><path class="cls-7" d="M22.57,9.95h.01s.66-2.21-.13-3.53c-1.41-1.77-3.91-2.53-4.53-2.7h0c2.67,.82,4.62,3.29,4.65,6.22Z"/><path class="cls-3" d="M18.56,15.85c-1.06,0-1.91-.86-1.91-1.91,0-.69,.36-1.29,.91-1.63-.68,.29-1.15,.97-1.15,1.76,0,1.06,.86,1.91,1.91,1.91,.37,0,.71-.1,1-.28-.23,.1-.49,.16-.76,.16Z"/></g></g></svg>