<?xml version="1.0" encoding="UTF-8"?><svg id="FireSwap" xmlns="http://www.w3.org/2000/svg" xmlns:xlink="http://www.w3.org/1999/xlink" viewBox="0 0 182 48"><defs><style>.cls-1{fill:url(#radial-gradient);}.cls-2{fill:#231f20;}</style><radialGradient id="radial-gradient" cx="-4855.92" cy="-1862.8" fx="-4855.92" fy="-1862.8" r="52.49" gradientTransform="translate(-4842.78 -1801.47) rotate(-180)" gradientUnits="userSpaceOnUse"><stop offset=".23" stop-color="#f78d2a"/><stop offset=".38" stop-color="#f5872a"/><stop offset=".56" stop-color="#f0782b"/><stop offset=".76" stop-color="#e95e2d"/><stop offset=".98" stop-color="#df3b30"/><stop offset="1" stop-color="#de3731"/></radialGradient></defs><path class="cls-1" d="M25.29,23.61c-.8-5.22-3.15-9.78-6.39-13.9-.16-.21-.35-.41-.45-.53,.03,1.41,.17,2.85,.04,4.27-.07,.8-.45,1.66-.93,2.32-.76,1.04-1.16,.93-1.61-.24-.43-1.12-.87-2.23-1.31-3.34h0c-.23-1-.47-2-.7-2.99-.58-2.51-.91-5.05-.84-7.74-.26,.23-.46,.37-.63,.54-1.22,1.32-2.53,2.57-3.63,3.97C3.44,12.87,.63,20.7,.76,29.54c.05,3.44,.57,6.77,1.77,9.93,0,0,0,.02,0,.03l.04,.09c.35,.92,.75,1.82,1.23,2.71,.45,.85,.91,1.76,1.41,2.65,.55,.82,2.14,1.44,4.1,1.73h0c-.21-.38-.4-.77-.59-1.12-.2-.37-.37-.76-.52-1.14l-.02-.04h0c-.51-1.35-.72-2.75-.75-4.2-.06-3.72,1.13-7.02,3.42-9.94,.47-.59,1.02-1.12,1.53-1.68,.07-.07,.15-.13,.26-.23-.03,1.13,.11,2.21,.35,3.27,.1,.42,.2,.84,.29,1.26h0c.18,.47,.37,.94,.55,1.41,.19,.49,.36,.54,.68,.1,.2-.28,.36-.64,.39-.98,.05-.6,0-1.2-.02-1.8,.05,.05,.12,.13,.19,.22,1.37,1.74,2.36,3.66,2.69,5.86,.35,2.32,.08,4.54-1.14,6.6-.15,.25-1.13,1.82-1.29,2.07-.05,.07-.11,.14-.17,.2,1.87-.39,3.5-1.15,4.35-2.37,.36-.6,2.69-4.31,3.05-4.91,2.89-4.87,3.55-10.15,2.72-15.65Z"/><g><path class="cls-2" d="M33.32,26.35h10.26v2.15h-10.26v7.34h-3.39v-14.82h16.99v2.53h-13.6v2.8Z"/><path class="cls-2" d="M52.54,35.84h-3.39v-14.82h3.39v14.82Z"/><path class="cls-2" d="M55.62,21.02h13.99c2.66,0,3.99,1.2,3.99,3.61v1.99c0,2.31-1.22,3.51-3.65,3.61l4.38,5.47v.14h-3.75l-4.44-5.62h-7.14v5.62h-3.39v-14.82Zm14.64,4.12c0-1.09-.57-1.64-1.72-1.64h-9.53v4.56h9.53c1.15,0,1.72-.55,1.72-1.64v-1.28Z"/><path class="cls-2" d="M79.71,26.35h10.89v2.15h-10.89v4.8h13.77v2.53h-17.15v-14.82h17.15v2.53h-13.77v2.8Z"/><path class="cls-2" d="M108.88,26.35c2.72,0,4.08,1.2,4.08,3.61v2.27c0,2.41-1.36,3.61-4.08,3.61h-13.1v-2.53h12.02c1.2,0,1.8-.54,1.8-1.62v-1.54c0-1.09-.6-1.64-1.8-1.64h-8.47c-2.39,0-3.59-.99-3.59-2.98v-1.52c0-1.99,1.2-2.98,3.59-2.98h13.08v2.53h-12c-.89,0-1.34,.32-1.34,.97v.81c0,.68,.45,1.01,1.34,1.01h8.47Z"/><path class="cls-2" d="M128.93,33.3h5.27c1.04,0,1.56-.48,1.56-1.44v-10.85h3.35v11.62c0,2.14-1.2,3.2-3.61,3.2h-16.34c-2.39,0-3.59-1.07-3.59-3.2v-11.62h3.32v10.85c0,.96,.52,1.44,1.56,1.44h5.29v-12.29h3.18v12.29Z"/><path class="cls-2" d="M156.63,21.02c2.41,0,3.61,1.07,3.61,3.2v11.62h-3.39v-5.01h-11.35v5.01h-3.39v-11.62c0-2.14,1.2-3.2,3.59-3.2h10.93Zm-11.13,7.66h11.35v-3.69c0-.96-.52-1.44-1.56-1.44h-8.25c-1.03,0-1.54,.48-1.54,1.44v3.69Z"/><path class="cls-2" d="M163.26,21.02h13.99c2.66,0,3.99,1.2,3.99,3.61v2.62c0,2.41-1.33,3.61-3.99,3.61h-10.6v4.99h-3.39v-14.82Zm14.64,4.16c0-1.08-.57-1.62-1.72-1.62h-9.53v4.85h9.53c1.15,0,1.72-.54,1.72-1.62v-1.6Z"/></g></svg>